<?xml version="1.0" standalone="no"?>
<!DOCTYPE svg PUBLIC "-//W3C//DTD SVG 20010904//EN"
 "http://www.w3.org/TR/2001/REC-SVG-20010904/DTD/svg10.dtd">
<svg version="1.0" xmlns="http://www.w3.org/2000/svg"
 width="1025.000000pt" height="597.000000pt" viewBox="0 0 1025.000000 597.000000"
 preserveAspectRatio="xMidYMid meet">
<metadata>
Created by potrace 1.16, written by Peter Selinger 2001-2019
</metadata>
<g transform="translate(0.000000,597.000000) scale(0.100000,-0.100000)"
fill="#000000" stroke="none">
<path d="M0 2985 l0 -2985 5125 0 5125 0 0 2985 0 2985 -5125 0 -5125 0 0
-2985z m5390 2380 c1091 -128 1967 -936 2150 -1985 28 -158 38 -450 21 -611
-25 -244 -92 -495 -209 -784 l-68 -170 -109 -3 c-60 -1 -113 2 -118 7 -6 6 13
67 52 170 179 463 232 693 232 1006 -1 365 -84 689 -259 1010 -104 190 -224
346 -393 511 -335 326 -743 529 -1227 611 -85 14 -162 18 -367 18 -283 -1
-353 -9 -579 -66 -304 -77 -613 -232 -861 -432 -93 -75 -262 -244 -336 -337
-237 -295 -403 -685 -456 -1073 l-8 -58 -95 59 -95 59 2 58 c3 82 66 325 119
463 126 325 295 584 549 837 77 77 185 175 241 216 361 271 780 440 1221 494
149 18 442 18 593 0z m-2598 -2228 l58 -32 -1 -85 0 -85 -104 110 c-77 81
-105 117 -105 136 0 39 9 41 54 13 23 -13 67 -39 98 -57z m3771 -1323 l107
-17 0 -36 c0 -20 9 -198 20 -396 11 -198 20 -371 20 -385 0 -14 69 154 154
373 84 218 155 399 157 402 7 7 229 -7 229 -15 0 -4 -103 -261 -229 -571
l-229 -564 -135 -3 -136 -3 -5 33 c-3 18 -24 281 -46 583 -22 303 -42 565 -44
583 -6 38 -10 38 137 16z m2600 -98 c31 -13 87 -68 87 -86 0 -5 5 -21 10 -36
l11 -27 28 44 c67 107 170 145 266 99 62 -30 88 -84 93 -190 3 -70 -9 -157
-62 -480 -36 -217 -68 -405 -71 -418 -5 -21 -10 -22 -115 -22 -69 0 -110 4
-110 10 0 6 32 202 71 437 76 457 77 463 24 483 -31 12 -67 -1 -89 -31 -30
-43 -46 -115 -106 -479 -33 -201 -63 -377 -66 -393 l-6 -27 -109 0 c-92 0
-109 2 -109 15 0 9 31 204 70 435 53 320 68 425 60 445 -13 34 -54 49 -88 33
-56 -27 -68 -70 -142 -510 -39 -227 -70 -414 -70 -415 0 -2 -49 -3 -110 -3
-75 0 -110 4 -110 11 0 13 168 1042 175 1077 5 21 9 22 116 22 l112 0 -7 -42
-7 -43 39 38 c63 61 147 82 215 53z m-993 -18 c0 -7 -33 -210 -74 -450 l-73
-438 139 0 139 0 -3 -102 -3 -103 -420 0 -420 0 -3 103 -3 102 165 0 c164 0
166 0 171 23 3 12 29 167 58 345 l54 322 -134 0 -133 0 0 105 0 105 270 0
c209 0 270 -3 270 -12z"/>
</g>
</svg>
