<?xml version="1.0" standalone="no"?>
<!DOCTYPE svg PUBLIC "-//W3C//DTD SVG 20010904//EN"
 "http://www.w3.org/TR/2001/REC-SVG-20010904/DTD/svg10.dtd">
<svg version="1.0" xmlns="http://www.w3.org/2000/svg"
 width="1025.000000pt" height="597.000000pt" viewBox="0 0 1025.000000 597.000000"
 preserveAspectRatio="xMidYMid meet">
<metadata>
Created by potrace 1.16, written by Peter Selinger 2001-2019
</metadata>
<g transform="translate(0.000000,597.000000) scale(0.100000,-0.100000)"
fill="#000000" stroke="none">
<path d="M2471 4428 c-220 -16 -410 -74 -507 -153 -89 -73 -118 -201 -74 -329
51 -150 238 -355 500 -547 139 -103 175 -126 305 -204 72 -42 142 -86 157 -96
94 -65 478 -263 753 -387 844 -381 1752 -676 2610 -846 99 -20 198 -36 220
-37 22 0 87 -9 145 -20 171 -31 318 -49 435 -53 61 -2 180 -7 265 -11 237 -12
467 16 620 74 37 14 58 17 71 11 29 -16 121 -11 165 9 87 40 137 144 114 240
-12 52 -66 125 -100 136 -11 3 -33 34 -51 70 -41 84 -156 223 -254 308 -115
100 -268 216 -277 211 -5 -3 -8 -22 -8 -43 0 -35 5 -42 58 -82 177 -134 314
-269 381 -373 36 -58 38 -66 12 -66 -10 0 -34 -6 -52 -14 -111 -46 -160 -182
-106 -289 l24 -46 -46 -15 c-172 -57 -585 -82 -826 -51 -27 3 -124 15 -215 26
-914 109 -2091 453 -3123 915 -310 139 -983 499 -1017 544 -3 4 -45 34 -95 67
-471 316 -697 627 -580 795 63 88 227 153 453 177 117 12 415 13 542 2 l85 -8
29 30 c23 24 25 32 14 38 -17 9 -340 30 -442 28 -39 -1 -123 -6 -185 -11z"/>
<path d="M2632 2928 c6 -243 26 -377 88 -588 60 -200 189 -486 232 -514 13 -8
74 -36 136 -62 69 -29 108 -50 100 -55 -7 -3 -57 -16 -110 -29 -90 -20 -97
-23 -102 -48 -11 -51 -166 -1003 -166 -1018 0 -11 22 -14 120 -14 116 0 120 1
125 23 2 12 30 175 60 362 30 187 63 360 71 384 36 96 140 158 250 149 33 -3
65 -13 81 -24 89 -67 91 -113 19 -544 -31 -184 -56 -338 -56 -343 0 -4 55 -6
122 -5 l123 3 53 315 c41 244 54 342 55 436 2 120 2 120 -35 195 -64 129 -139
172 -303 173 -117 1 -164 -15 -233 -81 l-43 -41 7 58 c6 55 4 62 -29 117 -170
282 -285 636 -326 999 l-18 152 -103 111 c-57 61 -108 111 -113 111 -6 0 -7
-92 -5 -222z"/>
<path d="M836 2113 c-15 -71 -246 -1475 -246 -1493 0 -20 5 -20 428 -20 l428
0 12 78 c7 42 15 89 18 104 l6 28 -306 0 c-276 0 -306 2 -306 16 0 9 47 301
105 649 58 348 105 640 105 649 0 14 -16 16 -119 16 l-119 0 -6 -27z"/>
<path d="M4500 1724 c-117 -22 -242 -98 -300 -183 -33 -48 -70 -137 -70 -169
0 -9 35 -12 119 -12 117 0 119 0 125 24 24 95 171 155 307 127 94 -20 131 -79
115 -184 l-7 -45 -182 -4 c-152 -5 -193 -9 -252 -28 -168 -54 -254 -126 -293
-244 -56 -171 -2 -326 136 -389 40 -19 65 -22 172 -22 150 0 189 14 276 98 56
55 56 55 50 23 -3 -17 -8 -50 -12 -73 l-7 -43 122 0 c117 0 121 1 126 23 9 35
105 624 116 713 14 101 0 175 -44 241 -38 56 -109 107 -180 129 -51 16 -264
28 -317 18z m245 -691 c-19 -101 -97 -191 -188 -218 -66 -19 -170 -19 -207 0
-57 30 -76 104 -40 162 38 62 138 91 324 92 l118 1 -7 -37z"/>
<path d="M5853 1711 c-75 -25 -137 -76 -196 -160 l-19 -26 5 25 c3 14 9 48 12
75 4 28 9 58 12 68 4 15 -6 17 -120 17 l-124 0 -37 -227 c-21 -126 -60 -363
-86 -528 -27 -165 -52 -312 -54 -327 l-5 -28 123 0 123 0 57 348 c52 317 60
353 92 420 26 52 47 81 76 103 76 54 171 62 203 16 9 -14 15 -44 15 -84 l0
-63 119 0 c99 0 120 3 125 16 10 27 7 199 -5 235 -18 53 -58 99 -103 120 -53
24 -144 24 -213 0z"/>
<path d="M1786 1683 c-3 -16 -29 -165 -57 -333 -60 -356 -65 -459 -29 -553 32
-84 76 -137 145 -172 55 -28 65 -30 174 -30 133 0 163 11 240 87 30 29 42 37
38 23 -3 -11 -9 -39 -12 -62 l-7 -43 124 0 124 0 13 83 c6 45 47 293 89 552
l78 470 -119 3 c-66 1 -122 1 -124 -1 -2 -3 -31 -168 -64 -368 -33 -201 -68
-381 -78 -403 -23 -52 -88 -112 -138 -125 -106 -30 -206 -2 -238 66 -32 66
-29 114 29 460 31 183 56 341 56 352 0 20 -6 21 -119 21 l-119 0 -6 -27z"/>
</g>
</svg>
